<?xml version="1.0" encoding="iso-8859-1"?>
<!-- Generator: Adobe Illustrator 19.0.0, SVG Export Plug-In . SVG Version: 6.00 Build 0)  -->
<svg version="1.1" id="Capa_1" xmlns="http://www.w3.org/2000/svg" xmlns:xlink="http://www.w3.org/1999/xlink" x="0px" y="0px"
	 viewBox="0 0 512 512" style="enable-background:new 0 0 512 512;" xml:space="preserve">
<path style="fill:#0088FF;" d="M497,256c0,132.299-108.701,241-241,241S15,388.299,15,256C15,123.699,123.701,15,256,15
	S497,123.699,497,256z"/>
<path style="fill:#00A5FF;" d="M256,0C115.3,0,0,115.3,0,256s115.3,256,256,256s256-115.3,256-256S396.7,0,256,0z M167.5,48.3
	C132.1,91.5,108,161.199,105.301,241h-74.4C36.599,154.9,91.601,80.7,167.5,48.3z M30.901,271H105.3
	c2.699,79.799,26.8,149.5,62.199,192.7C91.601,431.3,36.599,357.1,30.901,271z M241,479.9
	C185.501,466.099,139.501,376.899,135.3,271H241V479.9z M241,241H135.3C139.5,135.099,185.5,45.899,241,32.1V241z M481.099,241
	H405.7c-2.699-79.801-25.8-149.5-61.199-192.7C420.399,80.7,475.401,154.9,481.099,241z M271,32.1
	C326.499,45.899,371.499,135.099,375.7,241H271V32.1z M271,479.9V271h104.7C371.499,376.899,326.499,466.099,271,479.9z
	 M344.5,463.7c35.4-43.2,58.5-112.901,61.199-192.7h75.399C475.401,357.1,420.399,431.3,344.5,463.7z"/>
<path style="fill:#136EF1;" d="M497,256c0,132.299-108.701,241-241,241V15C388.299,15,497,123.699,497,256z"/>
<path style="fill:#0088FF;" d="M256,0v512c140.7,0,256-115.3,256-256S396.7,0,256,0z M481.099,241H405.7
	c-2.699-79.801-25.8-149.5-61.199-192.7C420.399,80.7,475.401,154.9,481.099,241z M271,32.1
	C326.499,45.899,371.499,135.099,375.7,241H271V32.1z M271,479.9V271h104.7C371.499,376.899,326.499,466.099,271,479.9z
	 M344.5,463.7c35.4-43.2,58.5-112.901,61.199-192.7h75.399C475.401,357.1,420.399,431.3,344.5,463.7z"/>
<g>
</g>
<g>
</g>
<g>
</g>
<g>
</g>
<g>
</g>
<g>
</g>
<g>
</g>
<g>
</g>
<g>
</g>
<g>
</g>
<g>
</g>
<g>
</g>
<g>
</g>
<g>
</g>
<g>
</g>
</svg>
